#N canvas 0 22 608 434 10;
#X obj 281 28 inlet~;
#X obj 430 52 inlet~;
#X obj 107 284 outlet~;
#X obj 385 295 outlet~;
#X obj 472 99 tgl 15 0 empty empty empty 17 7 0 10 -262144 -1 -1 0
1;
#X obj 108 162 spigot~;
#X obj 434 185 spigot~;
#X text 388 328 original signal;
#X obj 473 53 inlet;
#X obj 147 137 tgInvertNorm;
#X connect 0 0 5 0;
#X connect 0 0 3 0;
#X connect 1 0 6 0;
#X connect 4 0 9 0;
#X connect 4 0 6 1;
#X connect 5 0 2 0;
#X connect 6 0 2 0;
#X connect 8 0 4 0;
#X connect 9 0 5 1;
