#N canvas 433 159 675 492 10;
#X obj -144 -115 *~;
#X obj -15 -144 pvu~;
#X obj -140 -11 spigot~;
#X obj -152 -189 inlet~;
#X obj -140 39 outlet~;
#X msg -60 120 \$1 50;
#X obj -59 178 line~;
#X obj 4 3 cnv 15 54 114 empty empty Gain 0 5 0 14 -233017 -66577 0
;
#X obj 0 15 tgl 15 0 empty empty mute 17 7 0 10 -262144 -1 -1 0 1;
#X obj 1 34 vsl 15 80 0 1 0 0 empty empty empty 0 -9 0 10 -262144 -1
-1 4300 1;
#X obj 18 34 vu 15 80 empty empty -1 -8 0 10 -66577 -1 1 0;
#X connect 0 0 2 0;
#X connect 1 0 10 0;
#X connect 2 0 1 0;
#X connect 2 0 4 0;
#X connect 3 0 0 0;
#X connect 5 0 6 0;
#X connect 6 0 0 1;
#X connect 8 0 2 1;
#X connect 9 0 5 0;
#X coords 0 -1 1 1 60 120 2 0 0;
