#N canvas 374 23 798 642 10;
#X obj -372 23 *~;
#X obj -360 177 pvu~;
#X obj -368 94 spigot~;
#X obj -372 -41 inlet~;
#X msg -288 258 \$1 50;
#X obj -287 316 line~;
#X obj 4 3 cnv 15 74 114 empty empty Master 0 5 0 14 -233017 -66577
0;
#X obj 0 15 tgl 15 0 empty empty mute 17 7 0 10 -262144 -1 -1 0 1;
#X obj 1 34 vsl 15 80 0 1 0 0 empty empty empty 0 -9 0 10 -262144 -1
-1 0 1;
#X obj -255 -38 inlet~;
#X obj -367 408 dac~ 1 2;
#X obj -302 96 spigot~;
#X obj -255 51 *~;
#X obj 19 34 vu 15 80 empty empty -1 -8 0 10 -66577 -228856 1 0;
#X obj 39 34 vu 15 80 empty empty -1 -8 0 10 -66577 -1 1 0;
#X obj -292 179 pvu~;
#X connect 0 0 2 0;
#X connect 1 0 13 0;
#X connect 2 0 1 0;
#X connect 2 0 10 0;
#X connect 3 0 0 0;
#X connect 4 0 5 0;
#X connect 5 0 0 1;
#X connect 5 0 12 1;
#X connect 7 0 2 1;
#X connect 7 0 11 1;
#X connect 8 0 4 0;
#X connect 9 0 12 0;
#X connect 11 0 10 1;
#X connect 11 0 15 0;
#X connect 12 0 11 0;
#X connect 15 0 14 0;
#X coords 0 -1 1 1 80 120 2 0 0;
