#N canvas 141 60 1031 647 10;
#X obj -372 -41 inlet~;
#X obj 4 3 cnv 15 74 34 empty empty Recorder 0 5 0 14 -233017 -66577
0;
#X obj 0 15 tgl 15 0 empty empty start/stop 17 7 0 10 -262144 -1 -1
0 1;
#X obj -255 -38 inlet~;
#X obj -320 325 writesf~ 2;
#X msg -95 86 start;
#X msg -134 87 stop;
#X obj 71 -41 inlet;
#X obj 427 -9 inlet;
#X obj 230 -10 loadbang;
#X msg 426 23 open -bytes 4 \$1;
#X obj -134 62 moses 1;
#X msg 230 27 open -bytes 4 \$0_output.wav;
#X connect 0 0 4 0;
#X connect 2 0 11 0;
#X connect 3 0 4 1;
#X connect 5 0 4 0;
#X connect 6 0 4 0;
#X connect 7 0 2 0;
#X connect 8 0 4 0;
#X connect 9 0 12 0;
#X connect 10 0 4 0;
#X connect 11 0 6 0;
#X connect 11 1 5 0;
#X connect 12 0 4 0;
#X coords 0 -1 1 1 80 40 2 0 0;
