#N canvas 92 175 1004 553 10;
#X obj 98 396 outlet;
#X obj 144 396 outlet;
#X obj 190 396 outlet;
#X obj 234 396 outlet;
#X obj 98 308 sel 0 1 2 3;
#X obj 103 103 cnv 15 54 54 empty empty Steps.4 0 5 0 14 -233017 -66577
0;
#X obj 103 143 hradio 10 1 0 4 empty empty empty 0 -8 0 10 -262144
-1 -1 0;
#X obj 103 119 tgl 10 0 empty empty Rev. 17 7 0 10 -262144 -1 -1 0
1;
#X obj 607 202 counter;
#X obj 592 361 spigot;
#X obj 591 331 t f f;
#X obj 592 386 tgInvertNorm;
#X obj 607 226 % 4;
#X obj 103 131 tgl 10 0 empty empty Rand. 17 7 0 10 -262144 -1 -1 0
1;
#X obj 238 34 inlet;
#X floatatom 608 261 5 0 0 0 - - -;
#X text 235 15 bang;
#X text 320 14 reverse;
#X text 388 19 random;
#X obj 323 35 inlet;
#X obj 389 38 inlet;
#X obj 706 201 spigot;
#X obj 706 231 random 4;
#X obj 606 85 spigot;
#X obj 638 49 tgInvertNorm;
#X obj 7 102 loadbang;
#X msg 8 130 0;
#X connect 4 0 0 0;
#X connect 4 1 1 0;
#X connect 4 2 2 0;
#X connect 4 3 3 0;
#X connect 6 0 4 0;
#X connect 7 0 8 1;
#X connect 8 0 12 0;
#X connect 9 0 11 0;
#X connect 10 0 9 0;
#X connect 10 1 9 1;
#X connect 11 0 7 0;
#X connect 12 0 15 0;
#X connect 13 0 10 0;
#X connect 13 0 21 1;
#X connect 13 0 24 0;
#X connect 14 0 21 0;
#X connect 14 0 23 0;
#X connect 15 0 6 0;
#X connect 19 0 7 0;
#X connect 20 0 13 0;
#X connect 21 0 22 0;
#X connect 22 0 15 0;
#X connect 23 0 8 0;
#X connect 24 0 23 1;
#X connect 25 0 26 0;
#X connect 26 0 13 0;
#X coords 0 -1 1 1 60 60 2 100 100;
