#N canvas 173 501 927 530 10;
#X obj 495 52 counter;
#X obj 495 72 % 8;
#X obj 320 -26 inlet;
#X obj 375 -26 inlet;
#X obj 120 246 sel 0 1 2 3 4 5 6 7;
#X obj 120 355 outlet;
#X obj 166 355 outlet;
#X obj 212 355 outlet;
#X obj 256 355 outlet;
#X obj 301 355 outlet;
#X obj 347 355 outlet;
#X obj 393 355 outlet;
#X obj 439 355 outlet;
#X obj 103 103 cnv 15 114 54 empty empty Steps.8 0 5 0 14 -233017 -66577
0;
#X obj 106 142 hradio 10 1 0 8 empty empty empty 0 -8 0 10 -262144
-1 -1 4;
#X obj 106 119 tgl 10 0 empty empty Reverse 17 7 0 10 -262144 -1 -1
0 1;
#X obj 773 75 random 8;
#X obj 424 -25 inlet;
#X obj 169 120 tgl 10 0 empty empty Rand. 17 7 0 10 -262144 -1 -1 0
1;
#X obj 480 220 spigot;
#X obj 479 190 t f f;
#X floatatom 465 131 5 0 0 0 - - -;
#X obj 494 24 spigot;
#X obj 527 1 tgInvertNorm;
#X obj 771 37 spigot;
#X obj 480 245 tgInvertNorm;
#X obj 166 -9 loadbang;
#X msg 167 19 0;
#X connect 0 0 1 0;
#X connect 1 0 21 0;
#X connect 2 0 22 0;
#X connect 2 0 24 0;
#X connect 3 0 15 0;
#X connect 4 0 5 0;
#X connect 4 1 6 0;
#X connect 4 2 7 0;
#X connect 4 3 8 0;
#X connect 4 4 9 0;
#X connect 4 5 10 0;
#X connect 4 6 11 0;
#X connect 4 7 12 0;
#X connect 14 0 4 0;
#X connect 15 0 0 1;
#X connect 16 0 21 0;
#X connect 17 0 18 0;
#X connect 18 0 20 0;
#X connect 18 0 23 0;
#X connect 18 0 24 1;
#X connect 19 0 25 0;
#X connect 20 0 19 0;
#X connect 20 1 19 1;
#X connect 21 0 14 0;
#X connect 22 0 0 0;
#X connect 23 0 22 1;
#X connect 24 0 16 0;
#X connect 25 0 15 0;
#X connect 26 0 27 0;
#X connect 27 0 18 0;
#X coords 0 -1 1 1 120 60 2 100 100;
