#N canvas 423 93 948 528 10;
#X declare -lib mrpeach;
#X obj 52 33 tgDSP;
#X obj 91 235 bng 15 250 50 0 empty empty empty 17 7 0 10 -262144 -1
-1;
#X obj 55 90 adc~;
#X obj 420 555 fiddle~ 1024 1 20 3;
#X text 555 555 ------ arguments:;
#X obj 430 565 fiddle~ 1024 1 20 3;
#X text 565 565 ------ arguments:;
#X obj 420 555 fiddle~ 1024 1 20 3;
#X obj 430 565 fiddle~ 1024 1 20 3;
#X obj 55 162 fiddle~ 1024 1 20 3;
#X floatatom 55 234 5 0 0 0 - - -;
#X text 92 252 attack;
#X text 56 252 pitch;
#X floatatom 139 234 5 0 0 0 - - -;
#X text 476 698 amplitude;
#X text 486 713 (dB);
#X text 139 252 amplitude;
#X text 44 472 TODO: https://puredata.info/community/conventions/convention09/figueiro.pdf
;
#X text 43 435 TODO: bonker?;
#X text 44 459 TODO: specify different frequency bands;
#X msg 482 324 sendtyped /beatDetected N;
#X obj 481 357 tgOSCSend 9000;
#X text 43 446 TODO: send amplitude and pitch when beat detected;
#X connect 2 0 9 0;
#X connect 9 0 10 0;
#X connect 9 1 1 0;
#X connect 9 1 20 0;
#X connect 9 3 13 0;
#X connect 20 0 21 0;
