#N canvas 286 9 1097 743 10;
#X obj 219 450 +~;
#X obj 235 368 *~;
#X obj 250 348 / 16;
#N canvas 0 66 1680 984 auditiontaps 0;
#X obj 104 80 outlet~;
#X obj 248 77 outlet~;
#X obj 104 -25 *~ 0.25;
#X obj 104 6 +~;
#X obj 666 -4 +~;
#X obj 246 4 +~;
#X obj 805 0 +~;
#X obj 104 37 +~;
#X obj 247 35 +~;
#X obj 176 -89 * -2;
#X obj 176 -69 + 1;
#X obj 143 -48 * 1;
#X obj 246 -25 *~ 0.25;
#X obj 318 -89 * -2;
#X obj 318 -69 + 1;
#X obj 285 -48 * 1;
#X obj 386 -25 *~ 0.25;
#X obj 458 -89 * -2;
#X obj 458 -69 + 1;
#X obj 425 -48 * 1;
#X obj 526 -25 *~ 0.25;
#X obj 598 -89 * -2;
#X obj 598 -69 + 1;
#X obj 565 -48 * 1;
#X obj 666 -25 *~ 0.25;
#X obj 738 -89 * -2;
#X obj 738 -69 + 1;
#X obj 705 -48 * 1;
#X obj 806 -25 *~ 0.25;
#X obj 878 -89 * -2;
#X obj 878 -69 + 1;
#X obj 845 -48 * 1;
#X obj 945 -25 *~ 0.25;
#X obj 1017 -89 * -2;
#X obj 1017 -69 + 1;
#X obj 984 -48 * 1;
#X obj 1084 -25 *~ 0.25;
#X obj 1156 -89 * -2;
#X obj 1156 -69 + 1;
#X obj 1123 -48 * 1;
#X obj 370 157 * -2;
#X obj 370 177 + 1;
#X obj 337 198 * 1;
#X obj 465 157 * -2;
#X obj 465 177 + 1;
#X obj 432 198 * 1;
#X obj 316 219 *~ 0;
#X obj 411 219 *~ 0;
#X obj 104 59 +~;
#X obj 248 56 +~;
#X obj 31 -245 loadbang;
#X obj 68 -186 *;
#X obj 68 -205 t b f;
#X obj 105 -188 t b f;
#X obj 105 -169 +;
#X obj 68 -226 r \$0-as;
#X obj 105 -207 r \$0-ao;
#X obj 173 -245 loadbang;
#X obj 210 -186 *;
#X obj 210 -205 t b f;
#X obj 247 -188 t b f;
#X obj 247 -169 +;
#X obj 210 -226 r \$0-as;
#X obj 247 -207 r \$0-ao;
#X obj 313 -245 loadbang;
#X obj 350 -186 *;
#X obj 350 -205 t b f;
#X obj 387 -188 t b f;
#X obj 387 -169 +;
#X obj 350 -226 r \$0-as;
#X obj 387 -207 r \$0-ao;
#X obj 453 -245 loadbang;
#X obj 490 -186 *;
#X obj 490 -205 t b f;
#X obj 527 -188 t b f;
#X obj 527 -169 +;
#X obj 490 -226 r \$0-as;
#X obj 527 -207 r \$0-ao;
#X obj 593 -245 loadbang;
#X obj 630 -186 *;
#X obj 630 -205 t b f;
#X obj 667 -188 t b f;
#X obj 667 -169 +;
#X obj 630 -226 r \$0-as;
#X obj 667 -207 r \$0-ao;
#X obj 733 -245 loadbang;
#X obj 770 -186 *;
#X obj 770 -205 t b f;
#X obj 807 -188 t b f;
#X obj 807 -169 +;
#X obj 770 -226 r \$0-as;
#X obj 807 -207 r \$0-ao;
#X obj 872 -245 loadbang;
#X obj 909 -186 *;
#X obj 909 -205 t b f;
#X obj 946 -188 t b f;
#X obj 946 -169 +;
#X obj 909 -226 r \$0-as;
#X obj 946 -207 r \$0-ao;
#X obj 1011 -245 loadbang;
#X obj 1048 -186 *;
#X obj 1048 -205 t b f;
#X obj 1085 -188 t b f;
#X obj 1085 -169 +;
#X obj 1048 -226 r \$0-as;
#X obj 1085 -207 r \$0-ao;
#X obj 149 -127 r \$0-liaa;
#X obj 121 -69 r \$0-laa;
#X obj 291 -127 r \$0-riaa;
#X obj 263 -69 r \$0-laa;
#X obj 431 -127 r \$0-liba;
#X obj 403 -69 r \$0-lba;
#X obj 571 -127 r \$0-riba;
#X obj 543 -69 r \$0-lba;
#X obj 711 -127 r \$0-lica;
#X obj 683 -69 r \$0-lca;
#X obj 851 -127 r \$0-rica;
#X obj 823 -69 r \$0-lca;
#X obj 990 -127 r \$0-lida;
#X obj 962 -69 r \$0-lda;
#X obj 1129 -127 r \$0-rida;
#X obj 1101 -69 r \$0-lda;
#X obj 149 -108 t b f;
#X obj 291 -108 t b f;
#X obj 431 -108 t b f;
#X obj 571 -108 t b f;
#X obj 711 -108 t b f;
#X obj 851 -108 t b f;
#X obj 990 -108 t b f;
#X obj 1129 -108 t b f;
#X obj 411 98 r~ \$0-rmix;
#X obj 316 98 r~ \$0-lmix;
#X obj 343 118 r \$0-lfbm;
#X obj 438 118 r \$0-rfbm;
#X obj 438 137 t b f;
#X obj 343 137 t b f;
#X obj 31 -203 f 60.03;
#X obj 173 -203 f 77.29;
#X obj 313 -203 f 137.11;
#X obj 453 -203 f 112.41;
#X obj 593 -203 f 175.31;
#X obj 733 -203 f 160.97;
#X obj 872 -203 f 190.07;
#X obj 1011 -203 f 212.13;
#X obj 105 -150 delread~ \$0-space 60.03;
#X obj 247 -150 delread~ \$0-space 77.29;
#X obj 387 -150 delread~ \$0-space 137.11;
#X obj 527 -150 delread~ \$0-space 112.41;
#X obj 667 -150 delread~ \$0-space 175.31;
#X obj 807 -150 delread~ \$0-space 160.97;
#X obj 946 -150 delread~ \$0-space 190.07;
#X obj 1085 -150 delread~ \$0-space 212.13;
#X obj 302 177 r \$0-fbmix;
#X obj 397 177 r \$0-fbmix;
#X connect 2 0 3 0;
#X connect 3 0 7 0;
#X connect 4 0 7 1;
#X connect 5 0 8 0;
#X connect 6 0 8 1;
#X connect 7 0 48 0;
#X connect 8 0 49 0;
#X connect 9 0 10 0;
#X connect 10 0 11 1;
#X connect 11 0 2 1;
#X connect 12 0 5 0;
#X connect 13 0 14 0;
#X connect 14 0 15 1;
#X connect 15 0 12 1;
#X connect 16 0 3 1;
#X connect 17 0 18 0;
#X connect 18 0 19 1;
#X connect 19 0 16 1;
#X connect 20 0 5 1;
#X connect 21 0 22 0;
#X connect 22 0 23 1;
#X connect 23 0 20 1;
#X connect 24 0 4 0;
#X connect 25 0 26 0;
#X connect 26 0 27 1;
#X connect 27 0 24 1;
#X connect 28 0 6 0;
#X connect 29 0 30 0;
#X connect 30 0 31 1;
#X connect 31 0 28 1;
#X connect 32 0 4 1;
#X connect 33 0 34 0;
#X connect 34 0 35 1;
#X connect 35 0 32 1;
#X connect 36 0 6 1;
#X connect 37 0 38 0;
#X connect 38 0 39 1;
#X connect 39 0 36 1;
#X connect 40 0 41 0;
#X connect 41 0 42 1;
#X connect 42 0 46 1;
#X connect 43 0 44 0;
#X connect 44 0 45 1;
#X connect 45 0 47 1;
#X connect 46 0 48 1;
#X connect 47 0 49 1;
#X connect 48 0 0 0;
#X connect 49 0 1 0;
#X connect 50 0 136 0;
#X connect 51 0 54 0;
#X connect 52 0 51 0;
#X connect 52 1 51 1;
#X connect 53 0 54 0;
#X connect 53 1 54 1;
#X connect 54 0 144 0;
#X connect 55 0 52 0;
#X connect 56 0 53 0;
#X connect 57 0 137 0;
#X connect 58 0 61 0;
#X connect 59 0 58 0;
#X connect 59 1 58 1;
#X connect 60 0 61 0;
#X connect 60 1 61 1;
#X connect 61 0 145 0;
#X connect 62 0 59 0;
#X connect 63 0 60 0;
#X connect 64 0 138 0;
#X connect 65 0 68 0;
#X connect 66 0 65 0;
#X connect 66 1 65 1;
#X connect 67 0 68 0;
#X connect 67 1 68 1;
#X connect 68 0 146 0;
#X connect 69 0 66 0;
#X connect 70 0 67 0;
#X connect 71 0 139 0;
#X connect 72 0 75 0;
#X connect 73 0 72 0;
#X connect 73 1 72 1;
#X connect 74 0 75 0;
#X connect 74 1 75 1;
#X connect 75 0 147 0;
#X connect 76 0 73 0;
#X connect 77 0 74 0;
#X connect 78 0 140 0;
#X connect 79 0 82 0;
#X connect 80 0 79 0;
#X connect 80 1 79 1;
#X connect 81 0 82 0;
#X connect 81 1 82 1;
#X connect 82 0 148 0;
#X connect 83 0 80 0;
#X connect 84 0 81 0;
#X connect 85 0 141 0;
#X connect 86 0 89 0;
#X connect 87 0 86 0;
#X connect 87 1 86 1;
#X connect 88 0 89 0;
#X connect 88 1 89 1;
#X connect 89 0 149 0;
#X connect 90 0 87 0;
#X connect 91 0 88 0;
#X connect 92 0 142 0;
#X connect 93 0 96 0;
#X connect 94 0 93 0;
#X connect 94 1 93 1;
#X connect 95 0 96 0;
#X connect 95 1 96 1;
#X connect 96 0 150 0;
#X connect 97 0 94 0;
#X connect 98 0 95 0;
#X connect 99 0 143 0;
#X connect 100 0 103 0;
#X connect 101 0 100 0;
#X connect 101 1 100 1;
#X connect 102 0 103 0;
#X connect 102 1 103 1;
#X connect 103 0 151 0;
#X connect 104 0 101 0;
#X connect 105 0 102 0;
#X connect 106 0 122 0;
#X connect 107 0 11 0;
#X connect 108 0 123 0;
#X connect 109 0 15 0;
#X connect 110 0 124 0;
#X connect 111 0 19 0;
#X connect 112 0 125 0;
#X connect 113 0 23 0;
#X connect 114 0 126 0;
#X connect 115 0 27 0;
#X connect 116 0 127 0;
#X connect 117 0 31 0;
#X connect 118 0 128 0;
#X connect 119 0 35 0;
#X connect 120 0 129 0;
#X connect 121 0 39 0;
#X connect 122 0 11 0;
#X connect 122 1 9 0;
#X connect 123 0 15 0;
#X connect 123 1 13 0;
#X connect 124 0 19 0;
#X connect 124 1 17 0;
#X connect 125 0 23 0;
#X connect 125 1 21 0;
#X connect 126 0 27 0;
#X connect 126 1 25 0;
#X connect 127 0 31 0;
#X connect 127 1 29 0;
#X connect 128 0 35 0;
#X connect 128 1 33 0;
#X connect 129 0 39 0;
#X connect 129 1 37 0;
#X connect 130 0 47 0;
#X connect 131 0 46 0;
#X connect 132 0 135 0;
#X connect 133 0 134 0;
#X connect 134 0 45 0;
#X connect 134 1 43 0;
#X connect 135 0 42 0;
#X connect 135 1 40 0;
#X connect 136 0 51 0;
#X connect 137 0 58 0;
#X connect 138 0 65 0;
#X connect 139 0 72 0;
#X connect 140 0 79 0;
#X connect 141 0 86 0;
#X connect 142 0 93 0;
#X connect 143 0 100 0;
#X connect 144 0 2 0;
#X connect 145 0 12 0;
#X connect 146 0 16 0;
#X connect 147 0 20 0;
#X connect 148 0 24 0;
#X connect 149 0 28 0;
#X connect 150 0 32 0;
#X connect 151 0 36 0;
#X connect 152 0 42 0;
#X connect 153 0 45 0;
#X coords 0 0 1 1 130 182 0;
#X restore 94 533 pd auditiontaps;
#N canvas 0 21 1680 984 engine 0;
#X obj 67 141 abs~;
#X obj 67 184 *~;
#X obj 67 100 phasor~ 0.667;
#X obj 67 121 -~ 0.5;
#X obj 67 162 -~ 0.25;
#X obj 163 200 *~ -1;
#X obj 478 144 abs~;
#X obj 478 187 *~;
#X obj 478 124 -~ 0.5;
#X obj 478 165 -~ 0.25;
#X obj 574 203 *~ -1;
#X obj 684 145 abs~;
#X obj 684 188 *~;
#X obj 684 125 -~ 0.5;
#X obj 684 166 -~ 0.25;
#X obj 780 204 *~ -1;
#X obj 84 406 abs~;
#X obj 84 449 *~;
#X obj 84 386 -~ 0.5;
#X obj 84 427 -~ 0.25;
#X obj 180 465 *~ -1;
#X obj 290 412 abs~;
#X obj 290 455 *~;
#X obj 290 392 -~ 0.5;
#X obj 290 433 -~ 0.25;
#X obj 386 471 *~ -1;
#X obj 495 416 abs~;
#X obj 495 459 *~;
#X obj 495 396 -~ 0.5;
#X obj 495 437 -~ 0.25;
#X obj 591 475 *~ -1;
#X obj 701 419 abs~;
#X obj 701 462 *~;
#X obj 701 399 -~ 0.5;
#X obj 701 440 -~ 0.25;
#X obj 797 478 *~ -1;
#X obj 478 103 phasor~ 0.556;
#X obj 684 104 phasor~ 0.476;
#X obj 84 365 phasor~ 0.435;
#X obj 290 371 phasor~ 0.303;
#X obj 495 375 phasor~ 0.182;
#X obj 701 378 phasor~ 0.122;
#X obj 158 119 * 0.667;
#X obj 575 125 * 0.556;
#X obj 781 126 * 0.476;
#X obj 175 388 * 0.435;
#X obj 380 393 * 0.303;
#X obj 587 398 * 0.182;
#X obj 793 402 * 0.122;
#X obj 84 749 outlet~;
#X obj 684 226 +~ 184.11;
#X obj 84 487 +~ 204.17;
#X obj 591 497 +~ 244.37;
#X obj 701 500 +~ 248.41;
#X msg 167 621 set \$1-rm;
#X msg 155 642 set \$1-lm;
#X msg 276 622 set \$1-lm;
#X msg 264 643 set \$1-rm;
#X obj 5 506 == 0;
#X obj 14 442 t b f;
#X obj 14 463 spigot;
#X obj 5 525 t b f;
#X obj 5 546 spigot;
#X obj 67 222 +~ 51.88;
#X obj 163 222 +~ 118.1;
#X obj 478 225 +~ 156.1;
#X obj 574 225 +~ 166.2;
#X obj 780 226 +~ 199.1;
#X obj 180 487 +~ 213.7;
#X obj 290 493 +~ 223.1;
#X obj 386 493 +~ 230.7;
#X obj 495 497 +~ 239.1;
#X obj 797 500 +~ 251.8;
#X obj 38 -1 loadbang;
#X obj 75 58 *;
#X obj 75 39 t b f;
#X obj 112 56 t b f;
#X obj 112 75 +;
#X obj 75 18 r \$0-fs;
#X obj 112 37 r \$0-fo;
#X obj 273 142 abs~;
#X obj 273 185 *~;
#X obj 273 122 -~ 0.5;
#X obj 273 163 -~ 0.25;
#X obj 369 201 *~ -1;
#X obj 273 101 phasor~ 0.625;
#X obj 366 123 * 0.625;
#X obj 273 223 +~ 127;
#X obj 369 223 +~ 146.6;
#X obj 162 1 loadbang;
#X obj 199 60 *;
#X obj 199 41 t b f;
#X obj 236 58 t b f;
#X obj 236 77 +;
#X obj 199 20 r \$0-fs;
#X obj 236 39 r \$0-fo;
#X obj 286 0 loadbang;
#X obj 323 59 *;
#X obj 323 40 t b f;
#X obj 360 57 t b f;
#X obj 360 76 +;
#X obj 323 19 r \$0-fs;
#X obj 360 38 r \$0-fo;
#X obj 409 0 loadbang;
#X obj 446 59 *;
#X obj 446 40 t b f;
#X obj 483 57 t b f;
#X obj 483 76 +;
#X obj 446 19 r \$0-fs;
#X obj 483 38 r \$0-fo;
#X obj 535 1 loadbang;
#X obj 572 60 *;
#X obj 572 41 t b f;
#X obj 609 58 t b f;
#X obj 609 77 +;
#X obj 572 20 r \$0-fs;
#X obj 609 39 r \$0-fo;
#X obj 658 -1 loadbang;
#X obj 695 58 *;
#X obj 695 39 t b f;
#X obj 732 56 t b f;
#X obj 732 75 +;
#X obj 695 18 r \$0-fs;
#X obj 732 37 r \$0-fo;
#X obj 783 0 loadbang;
#X obj 820 59 *;
#X obj 820 40 t b f;
#X obj 857 57 t b f;
#X obj 857 76 +;
#X obj 820 19 r \$0-fs;
#X obj 857 38 r \$0-fo;
#X obj 912 0 loadbang;
#X obj 949 59 *;
#X obj 949 40 t b f;
#X obj 986 57 t b f;
#X obj 986 76 +;
#X obj 949 19 r \$0-fs;
#X obj 986 38 r \$0-fo;
#X obj 38 41 f 51.88;
#X obj 162 43 f 118.1;
#X obj 286 42 f 127;
#X obj 409 42 f 146.6;
#X obj 535 43 f 156.1;
#X obj 658 41 f 166.2;
#X obj 783 42 f 184.11;
#X obj 912 42 f 199.1;
#X obj 158 99 r \$0-mod;
#X obj 366 103 r \$0-mod;
#X obj 575 105 r \$0-mod;
#X obj 781 106 r \$0-mod;
#X obj 116 167 r \$0-dep;
#X obj 322 168 r \$0-dep;
#X obj 527 170 r \$0-dep;
#X obj 733 171 r \$0-dep;
#X obj 67 243 vd~ \$0-space;
#X obj 163 243 vd~ \$0-space;
#X obj 273 244 vd~ \$0-space;
#X obj 369 244 vd~ \$0-space;
#X obj 478 246 vd~ \$0-space;
#X obj 574 246 vd~ \$0-space;
#X obj 684 247 vd~ \$0-space;
#X obj 780 247 vd~ \$0-space;
#X obj 5 417 r \$0-rmix;
#X obj 14 483 f \$0;
#X obj 5 567 f \$0;
#X obj 10 268 loadbang;
#X obj 47 327 *;
#X obj 47 308 t b f;
#X obj 84 325 t b f;
#X obj 84 344 +;
#X obj 47 287 r \$0-fs;
#X obj 84 306 r \$0-fo;
#X obj 134 270 loadbang;
#X obj 171 329 *;
#X obj 171 310 t b f;
#X obj 208 327 t b f;
#X obj 208 346 +;
#X obj 171 289 r \$0-fs;
#X obj 208 308 r \$0-fo;
#X obj 258 269 loadbang;
#X obj 295 328 *;
#X obj 295 309 t b f;
#X obj 332 326 t b f;
#X obj 332 345 +;
#X obj 295 288 r \$0-fs;
#X obj 332 307 r \$0-fo;
#X obj 381 269 loadbang;
#X obj 418 328 *;
#X obj 418 309 t b f;
#X obj 455 326 t b f;
#X obj 455 345 +;
#X obj 418 288 r \$0-fs;
#X obj 455 307 r \$0-fo;
#X obj 507 270 loadbang;
#X obj 544 329 *;
#X obj 544 310 t b f;
#X obj 581 327 t b f;
#X obj 581 346 +;
#X obj 544 289 r \$0-fs;
#X obj 581 308 r \$0-fo;
#X obj 630 268 loadbang;
#X obj 667 327 *;
#X obj 667 308 t b f;
#X obj 704 325 t b f;
#X obj 704 344 +;
#X obj 667 287 r \$0-fs;
#X obj 704 306 r \$0-fo;
#X obj 755 269 loadbang;
#X obj 792 328 *;
#X obj 792 309 t b f;
#X obj 829 326 t b f;
#X obj 829 345 +;
#X obj 792 288 r \$0-fs;
#X obj 829 307 r \$0-fo;
#X obj 884 269 loadbang;
#X obj 921 328 *;
#X obj 921 309 t b f;
#X obj 958 326 t b f;
#X obj 958 345 +;
#X obj 921 288 r \$0-fs;
#X obj 958 307 r \$0-fo;
#X obj 175 368 r \$0-mod;
#X obj 380 373 r \$0-mod;
#X obj 587 378 r \$0-mod;
#X obj 793 382 r \$0-mod;
#X obj 133 432 r \$0-dep;
#X obj 339 438 r \$0-dep;
#X obj 544 442 r \$0-dep;
#X obj 750 445 r \$0-dep;
#X obj 10 310 f 204.17;
#X obj 134 312 f 213.7;
#X obj 258 311 f 223.1;
#X obj 381 311 f 230.7;
#X obj 507 312 f 239.1;
#X obj 630 310 f 244.37;
#X obj 755 311 f 248.41;
#X obj 884 311 f 251.8;
#X obj 84 508 vd~ \$0-space;
#X obj 180 508 vd~ \$0-space;
#X obj 290 514 vd~ \$0-space;
#X obj 386 514 vd~ \$0-space;
#X obj 495 518 vd~ \$0-space;
#X obj 591 518 vd~ \$0-space;
#X obj 701 521 vd~ \$0-space;
#X obj 797 521 vd~ \$0-space;
#X obj 385 713 +~;
#X obj 84 706 +~;
#X obj 84 531 -~;
#X obj 165 530 -~;
#X obj 274 536 +~;
#X obj 386 536 -~;
#X obj 480 539 +~;
#X obj 576 540 +~;
#X obj 686 542 -~;
#X obj 797 542 -~;
#X obj 100 686 catch~ \$0-lm;
#X obj 400 693 catch~ \$0-rm;
#X obj 273 665 throw~ \$0-rm;
#X obj 164 664 throw~ \$0-lm;
#X obj 84 591 +~;
#X obj 165 596 +~;
#X obj 275 598 +~;
#X obj 385 602 +~;
#X obj 84 729 +~;
#X obj 113 722 s~ \$0-lmix;
#X obj 385 736 s~ \$0-rmix;
#X text 517 634 fbmix mode zero (default): pairs are mixed to same
channel L: 1 2 7 8 9 10 15 16 R: 3 4 5 6 11 12 13 14 mode one: odd
to left \, even to right \, pairs split L/R. This affects the panning
of the feedback taps to the main outputs.;
#X connect 0 0 4 0;
#X connect 1 0 5 0;
#X connect 1 0 63 0;
#X connect 2 0 3 0;
#X connect 3 0 0 0;
#X connect 4 0 1 0;
#X connect 5 0 64 0;
#X connect 6 0 9 0;
#X connect 7 0 10 0;
#X connect 7 0 65 0;
#X connect 8 0 6 0;
#X connect 9 0 7 0;
#X connect 10 0 66 0;
#X connect 11 0 14 0;
#X connect 12 0 15 0;
#X connect 12 0 50 0;
#X connect 13 0 11 0;
#X connect 14 0 12 0;
#X connect 15 0 67 0;
#X connect 16 0 19 0;
#X connect 17 0 20 0;
#X connect 17 0 51 0;
#X connect 18 0 16 0;
#X connect 19 0 17 0;
#X connect 20 0 68 0;
#X connect 21 0 24 0;
#X connect 22 0 25 0;
#X connect 22 0 69 0;
#X connect 23 0 21 0;
#X connect 24 0 22 0;
#X connect 25 0 70 0;
#X connect 26 0 29 0;
#X connect 27 0 30 0;
#X connect 27 0 71 0;
#X connect 28 0 26 0;
#X connect 29 0 27 0;
#X connect 30 0 52 0;
#X connect 31 0 34 0;
#X connect 32 0 35 0;
#X connect 32 0 53 0;
#X connect 33 0 31 0;
#X connect 34 0 32 0;
#X connect 35 0 72 0;
#X connect 36 0 8 0;
#X connect 37 0 13 0;
#X connect 38 0 18 0;
#X connect 39 0 23 0;
#X connect 40 0 28 0;
#X connect 41 0 33 0;
#X connect 42 0 2 0;
#X connect 43 0 36 0;
#X connect 44 0 37 0;
#X connect 45 0 38 0;
#X connect 46 0 39 0;
#X connect 47 0 40 0;
#X connect 48 0 41 0;
#X connect 50 0 160 0;
#X connect 51 0 237 0;
#X connect 52 0 242 0;
#X connect 53 0 243 0;
#X connect 54 0 258 0;
#X connect 55 0 258 0;
#X connect 56 0 257 0;
#X connect 57 0 257 0;
#X connect 58 0 61 0;
#X connect 59 0 60 0;
#X connect 59 1 60 1;
#X connect 60 0 163 0;
#X connect 61 0 62 0;
#X connect 61 1 62 1;
#X connect 62 0 164 0;
#X connect 63 0 154 0;
#X connect 64 0 155 0;
#X connect 65 0 158 0;
#X connect 66 0 159 0;
#X connect 67 0 161 0;
#X connect 68 0 238 0;
#X connect 69 0 239 0;
#X connect 70 0 240 0;
#X connect 71 0 241 0;
#X connect 72 0 244 0;
#X connect 73 0 138 0;
#X connect 74 0 77 0;
#X connect 75 0 74 0;
#X connect 75 1 74 1;
#X connect 76 0 77 0;
#X connect 76 1 77 1;
#X connect 77 0 63 1;
#X connect 78 0 75 0;
#X connect 79 0 76 0;
#X connect 80 0 83 0;
#X connect 81 0 84 0;
#X connect 81 0 87 0;
#X connect 82 0 80 0;
#X connect 83 0 81 0;
#X connect 84 0 88 0;
#X connect 85 0 82 0;
#X connect 86 0 85 0;
#X connect 87 0 156 0;
#X connect 88 0 157 0;
#X connect 89 0 139 0;
#X connect 90 0 93 0;
#X connect 91 0 90 0;
#X connect 91 1 90 1;
#X connect 92 0 93 0;
#X connect 92 1 93 1;
#X connect 93 0 64 1;
#X connect 94 0 91 0;
#X connect 95 0 92 0;
#X connect 96 0 140 0;
#X connect 97 0 100 0;
#X connect 98 0 97 0;
#X connect 98 1 97 1;
#X connect 99 0 100 0;
#X connect 99 1 100 1;
#X connect 100 0 87 1;
#X connect 101 0 98 0;
#X connect 102 0 99 0;
#X connect 103 0 141 0;
#X connect 104 0 107 0;
#X connect 105 0 104 0;
#X connect 105 1 104 1;
#X connect 106 0 107 0;
#X connect 106 1 107 1;
#X connect 107 0 88 1;
#X connect 108 0 105 0;
#X connect 109 0 106 0;
#X connect 110 0 142 0;
#X connect 111 0 114 0;
#X connect 112 0 111 0;
#X connect 112 1 111 1;
#X connect 113 0 114 0;
#X connect 113 1 114 1;
#X connect 114 0 65 1;
#X connect 115 0 112 0;
#X connect 116 0 113 0;
#X connect 117 0 143 0;
#X connect 118 0 121 0;
#X connect 119 0 118 0;
#X connect 119 1 118 1;
#X connect 120 0 121 0;
#X connect 120 1 121 1;
#X connect 121 0 66 1;
#X connect 122 0 119 0;
#X connect 123 0 120 0;
#X connect 124 0 144 0;
#X connect 125 0 128 0;
#X connect 126 0 125 0;
#X connect 126 1 125 1;
#X connect 127 0 128 0;
#X connect 127 1 128 1;
#X connect 128 0 50 1;
#X connect 129 0 126 0;
#X connect 130 0 127 0;
#X connect 131 0 145 0;
#X connect 132 0 135 0;
#X connect 133 0 132 0;
#X connect 133 1 132 1;
#X connect 134 0 135 0;
#X connect 134 1 135 1;
#X connect 135 0 67 1;
#X connect 136 0 133 0;
#X connect 137 0 134 0;
#X connect 138 0 74 0;
#X connect 139 0 90 0;
#X connect 140 0 97 0;
#X connect 141 0 104 0;
#X connect 142 0 111 0;
#X connect 143 0 118 0;
#X connect 144 0 125 0;
#X connect 145 0 132 0;
#X connect 146 0 42 0;
#X connect 147 0 86 0;
#X connect 148 0 43 0;
#X connect 149 0 44 0;
#X connect 150 0 1 1;
#X connect 151 0 81 1;
#X connect 152 0 7 1;
#X connect 153 0 12 1;
#X connect 154 0 247 1;
#X connect 155 0 248 0;
#X connect 156 0 249 0;
#X connect 157 0 250 1;
#X connect 158 0 251 0;
#X connect 159 0 252 0;
#X connect 160 0 253 0;
#X connect 161 0 254 1;
#X connect 162 0 58 0;
#X connect 162 0 59 0;
#X connect 163 0 54 0;
#X connect 163 0 56 0;
#X connect 164 0 55 0;
#X connect 164 0 57 0;
#X connect 165 0 229 0;
#X connect 166 0 169 0;
#X connect 167 0 166 0;
#X connect 167 1 166 1;
#X connect 168 0 169 0;
#X connect 168 1 169 1;
#X connect 169 0 51 1;
#X connect 170 0 167 0;
#X connect 171 0 168 0;
#X connect 172 0 230 0;
#X connect 173 0 176 0;
#X connect 174 0 173 0;
#X connect 174 1 173 1;
#X connect 175 0 176 0;
#X connect 175 1 176 1;
#X connect 176 0 68 1;
#X connect 177 0 174 0;
#X connect 178 0 175 0;
#X connect 179 0 231 0;
#X connect 180 0 183 0;
#X connect 181 0 180 0;
#X connect 181 1 180 1;
#X connect 182 0 183 0;
#X connect 182 1 183 1;
#X connect 183 0 69 1;
#X connect 184 0 181 0;
#X connect 185 0 182 0;
#X connect 186 0 232 0;
#X connect 187 0 190 0;
#X connect 188 0 187 0;
#X connect 188 1 187 1;
#X connect 189 0 190 0;
#X connect 189 1 190 1;
#X connect 190 0 70 1;
#X connect 191 0 188 0;
#X connect 192 0 189 0;
#X connect 193 0 233 0;
#X connect 194 0 197 0;
#X connect 195 0 194 0;
#X connect 195 1 194 1;
#X connect 196 0 197 0;
#X connect 196 1 197 1;
#X connect 197 0 71 1;
#X connect 198 0 195 0;
#X connect 199 0 196 0;
#X connect 200 0 234 0;
#X connect 201 0 204 0;
#X connect 202 0 201 0;
#X connect 202 1 201 1;
#X connect 203 0 204 0;
#X connect 203 1 204 1;
#X connect 204 0 52 1;
#X connect 205 0 202 0;
#X connect 206 0 203 0;
#X connect 207 0 235 0;
#X connect 208 0 211 0;
#X connect 209 0 208 0;
#X connect 209 1 208 1;
#X connect 210 0 211 0;
#X connect 210 1 211 1;
#X connect 211 0 53 1;
#X connect 212 0 209 0;
#X connect 213 0 210 0;
#X connect 214 0 236 0;
#X connect 215 0 218 0;
#X connect 216 0 215 0;
#X connect 216 1 215 1;
#X connect 217 0 218 0;
#X connect 217 1 218 1;
#X connect 218 0 72 1;
#X connect 219 0 216 0;
#X connect 220 0 217 0;
#X connect 221 0 45 0;
#X connect 222 0 46 0;
#X connect 223 0 47 0;
#X connect 224 0 48 0;
#X connect 225 0 17 1;
#X connect 226 0 22 1;
#X connect 227 0 27 1;
#X connect 228 0 32 1;
#X connect 229 0 166 0;
#X connect 230 0 173 0;
#X connect 231 0 180 0;
#X connect 232 0 187 0;
#X connect 233 0 194 0;
#X connect 234 0 201 0;
#X connect 235 0 208 0;
#X connect 236 0 215 0;
#X connect 237 0 247 0;
#X connect 238 0 248 1;
#X connect 239 0 249 1;
#X connect 240 0 250 0;
#X connect 241 0 251 1;
#X connect 242 0 252 1;
#X connect 243 0 253 1;
#X connect 244 0 254 0;
#X connect 245 0 263 1;
#X connect 245 0 265 0;
#X connect 246 0 263 0;
#X connect 246 0 264 0;
#X connect 247 0 259 0;
#X connect 248 0 260 0;
#X connect 249 0 261 0;
#X connect 250 0 262 0;
#X connect 251 0 261 1;
#X connect 252 0 262 1;
#X connect 253 0 259 1;
#X connect 254 0 260 1;
#X connect 255 0 246 1;
#X connect 256 0 245 1;
#X connect 259 0 246 0;
#X connect 260 0 258 0;
#X connect 261 0 257 0;
#X connect 262 0 245 0;
#X connect 263 0 49 0;
#X restore 236 308 pd engine;
#X obj 82 376 inlet~;
#X obj 181 552 outlet~;
#X obj 340 373 *~ 0;
#X obj 235 389 +~;
#X obj 94 552 outlet~;
#X obj 235 410 filt1000~ \$0-F;
#X obj 82 434 lop~;
#X obj 82 395 lp8_cheb~ 7000 100;
#X obj 134 376 r \$0-brickwall;
#X obj 103 414 r \$0-lowpass;
#X obj 512 -39 loadbang;
#X obj 512 -20 f \$0;
#X obj 291 552 s \$0-dep;
#X obj 291 514 r \$0-dp;
#X obj 250 328 r \$0-feedback;
#X obj 339 334 delread~ \$0-space 250;
#X obj 339 314 r \$0-deltap;
#X obj 361 354 r \$0-delfb;
#X obj 101 103 cnv 15 275 165 empty empty reverb282~_\$1 1 6 0 10 -245694
-1 0;
#X floatatom 306 161 5 0 1000 1 moddep #0-d #0-dp;
#X floatatom 214 233 5 0 400 1 fdb_scl #0-gs #0-ffs;
#X floatatom 214 251 5 0 1000 1 fdb_off #0-go #0-fo;
#X floatatom 293 233 5 0 400 1 aud_scl #0-gs #0-aas;
#X floatatom 293 251 5 0 1000 1 aud_off #0-go #0-ao;
#X floatatom 136 233 5 1 400 1 gbl_scl #0-ggs #0-gs;
#X floatatom 136 251 5 0 1000 1 gbl_off #0-ggo #0-go;
#X floatatom 306 179 5 0 1000 1 modspd #0-s #0-modsp;
#X floatatom 306 143 5 -100 100 1 fdback #0-fb #0-fbk;
#X floatatom 306 197 5 0 1000 1 deltap #0-dt #0-deltap;
#X floatatom 306 215 5 -100 100 1 delfbk #0-dfb #0-delf;
#X obj 205 107 filt1000 \$0-F;
#X floatatom 306 107 5 0 24000 1 brkwll #0-bwa #0-brickwall;
#X floatatom 306 125 5 0 24000 1 lopass #0-bwb #0-lowpass;
#X floatatom 135 125 5 -1 1 0 lvl_a #0-aal #0-laa;
#X obj 169 125 tgl 16 0 \$0-liaa \$0-aail empty 17 7 0 10 -262144 -1
-1 0 1;
#X obj 187 125 tgl 16 0 \$0-riaa \$0-aair empty 17 7 0 10 -262144 -1
-1 0 1;
#X floatatom 135 143 5 -1 1 0 lvl_b #0-abl #0-lba;
#X obj 169 143 tgl 16 0 \$0-liba \$0-abil empty 17 7 0 10 -262144 -1
-1 0 1;
#X obj 187 143 tgl 16 0 \$0-riba \$0-abir empty 17 7 0 10 -262144 -1
-1 1 1;
#X floatatom 135 161 5 -1 1 0 lvl_c #0-acl #0-lca;
#X obj 169 161 tgl 16 0 \$0-lica \$0-acil empty 17 7 0 10 -262144 -1
-1 1 1;
#X obj 187 161 tgl 16 0 \$0-rica \$0-acir empty 17 7 0 10 -262144 -1
-1 0 1;
#X floatatom 135 179 5 -1 1 0 lvl_d #0-adl #0-lda;
#X obj 169 179 tgl 16 0 \$0-lida \$0-adil empty 17 7 0 10 -262144 -1
-1 1 1;
#X obj 187 179 tgl 16 0 \$0-rida \$0-adir empty 17 7 0 10 -262144 -1
-1 1 1;
#X floatatom 135 197 5 -1 1 0 fbmix #0-fmix #0-fbmix;
#X obj 169 197 tgl 16 0 \$0-lfbm \$0-fmil empty 17 7 0 10 -262144 -1
-1 0 1;
#X obj 187 197 tgl 16 0 \$0-rfbm \$0-fmir empty 17 7 0 10 -262144 -1
-1 0 1;
#X obj 169 215 tgl 16 0 \$0-rmix \$0-fmm fbmix_mode -65 7 0 10 -262144
-1 -1 0 1;
#X text 102 109 tap mix \, inv L/R;
#X obj 205 37 r \$0-hf;
#X obj 223 56 r \$0-hdb;
#X obj 241 75 r \$0-hs;
#X obj 260 37 r \$0-lf;
#X obj 278 56 r \$0-ldb;
#X obj 297 75 r \$0-ls;
#X text 101 228 delay;
#X text 101 239 times;
#X obj 291 533 * 0.16;
#X obj 347 533 * 0.01;
#X obj 347 552 s \$0-mod;
#X obj 347 514 r \$0-modsp;
#X obj 414 552 s \$0-delfb;
#X obj 414 514 r \$0-delf;
#X obj 414 533 * 0.01;
#X obj 483 514 r \$0-fbk;
#X obj 483 533 * 0.04;
#X obj 483 552 s \$0-feedback;
#X obj 292 598 * 0.01;
#X obj 292 617 s \$0-fs;
#X obj 292 579 r \$0-ffs;
#X obj 347 598 * 0.01;
#X obj 347 579 r \$0-aas;
#X obj 347 617 s \$0-as;
#X text 634 369 Feedback and scaling factors are in percent \, everything
else is in Hz \, ms or no units \, as applicable.;
#X obj 235 430 hip~ 10;
#X text 633 279 The real SST-282 has a selection of "rooms" that change
the audition tap delay times. I've omitted this since I don't know
the delay times (the output tap times here are taken from the patent
and the feedback tap times are hand tuned) \, but I don't expect they
are tremendously useful. At any rate they could easily be found from
impulse responses (or ROM dumps).;
#X obj 39 81 switch~;
#X obj 102 255 tgl 12 0 \$0-enable rev282 en 14 5 0 10 -262144 -1 -1
1 1;
#X text 42 -6 Switch with "rev282";
#X msg 513 -1 \; \$1-bwa 7000 \; \$1-bwb 4000 \; \$1-ggs 100 \; \$1-ggo
0 \; \$1-d 100 \; \$1-s 100 \; \$1-fb 70 \; \$1-dt 250 \; \$1-dfb 0
\; \$1-aal 0.25 \; \$1-abl 0.25 \; \$1-acl 0.25 \; \$1-adl 0.25 \;
\$1-fmix 0 \; \$1-fmm 0 \; \$1-aail 0 \; \$1-aair 0 \; \$1-abil 0 \;
\$1-abir 1 \; \$1-acil 1 \; \$1-acir 0 \; \$1-adil 1 \; \$1-adir 1
\; \$1-fmil 0 \; \$1-fmir 0 \; \$1-hf 5000 \; \$1-hdb -6 \; \$1-hs
1 \; \$1-lf 150 \; \$1-ldb 0 \; \$1-ls 1 \; rev282 1 \;;
#X text 677 -13 arg \$1 = max delay time;
#X obj 219 470 delwrite~ \$0-space \$1;
#X obj 39 62 r \$0-enable;
#X text 633 72 Emulation of Chris Moore's Ursa Major Space Station
SST-282 reverb \, from patent 4 \, 303 \, 991 and the service manual.
There are 8 mixable audition taps and 16 modulated feedback taps (interpolated
\, unlike the original). Also included is the feedback delay tap (of
course this can easily lead to instability when used with the main
feedback). Also included is optional audition tap inversion \, feedback
tap mix (with two modes for stereo output) \, delay time scaling/offset
(this can be used as pre-delay if applied to the audition taps) \,
and modulation rate and depth scaling. Obviously the "early reflection"
sound isn't this algorithm's strength. It may be better to feed both
the dry signal (possibly with added filtering) and fbmix outputs into
an additional allpass reverberator. This would turn the chorusing into
a more flattering \, decorrelated effect. This would also permit longer
reverb times with a smoother sound (less dramatic delay modulation)
;
#X text 636 418 Scott Nordlund \, 2011;
#X text 636 436 Contact: limina@live.com.;
#X text 637 455 Last revised: 08-03-2011.;
#X connect 0 0 87 0;
#X connect 1 0 8 0;
#X connect 2 0 1 1;
#X connect 3 0 9 0;
#X connect 3 1 6 0;
#X connect 4 0 1 0;
#X connect 5 0 12 0;
#X connect 7 0 8 1;
#X connect 8 0 10 0;
#X connect 10 0 80 0;
#X connect 11 0 0 0;
#X connect 12 0 11 0;
#X connect 13 0 12 1;
#X connect 14 0 11 1;
#X connect 15 0 16 0;
#X connect 16 0 85 0;
#X connect 18 0 63 0;
#X connect 19 0 2 0;
#X connect 20 0 7 0;
#X connect 21 0 20 0;
#X connect 22 0 7 1;
#X connect 55 0 35 0;
#X connect 56 0 35 1;
#X connect 57 0 35 2;
#X connect 58 0 35 3;
#X connect 59 0 35 4;
#X connect 60 0 35 5;
#X connect 63 0 17 0;
#X connect 64 0 65 0;
#X connect 66 0 64 0;
#X connect 68 0 69 0;
#X connect 69 0 67 0;
#X connect 70 0 71 0;
#X connect 71 0 72 0;
#X connect 73 0 74 0;
#X connect 75 0 73 0;
#X connect 76 0 78 0;
#X connect 77 0 76 0;
#X connect 80 0 0 1;
#X connect 88 0 82 0;
#X coords 0 -1 1 1 277 171 1 100 100;
