#N canvas 255 23 1245 903 10;
#X obj -35 848 tgMaster~;
#X obj 247 303 mtof;
#X obj 481 432 osc~;
#X msg 184 221 48;
#X msg 228 221 57;
#X obj 181 640 *~;
#X obj 316 463 pink~;
#X obj 591 434 phasor~ 0.3;
#X obj 373 542 min~;
#X obj 232 542 lop~ 40;
#X obj 592 248 mtof;
#X obj 753 409 osc~;
#X msg 580 186 48;
#X msg 624 186 57;
#X obj 752 556 *~;
#X obj 885 390 pink~;
#X obj 944 469 min~;
#X obj 803 504 lop~ 40;
#X obj 655 602 min~;
#X obj 987 812 delwrite~ tbt 200;
#X obj 211 64 tgStepSequencer8;
#X obj 211 6 tgMetro 60;
#X msg 501 186 38;
#X obj 887 610 delread~ tbt 200;
#X obj 987 390 phasor~ 0.1;
#X obj 1030 504 lop~ 40;
#X obj 978 671 *~;
#X obj 985 762 *~ 0.3;
#X obj -48 767 delread~ tbt 120;
#X msg 340 221 69;
#X msg 681 186 62;
#X obj 784 6 tgMetro 800;
#X obj 787 186 random 60;
#X obj 787 221 / 100;
#X obj 857 186 random 80;
#X msg 285 221 60;
#X obj 56 6 tgMetro 800;
#X obj 57 73 random 60;
#X obj 57 108 * 10;
#X obj 539 694 vcf~ 2;
#X obj 316 428 phasor~;
#X obj 377 428 phasor~;
#X obj 344 447 *~;
#X obj 338 6 tgMetro 200;
#X obj 44 729 delwrite~ ddd 512;
#X obj 214 753 delread~ ddd 512;
#X obj 214 788 *~;
#X obj 162 879 freeverb~;
#X msg 260 834 roomsize 0.95;
#X obj 259 808 loadbang;
#X obj -47 5 tgDsp;
#X obj -16 395 mtof;
#X msg -16 361 24;
#X obj -16 429 osc~;
#X obj -19 325 loadbang;
#X obj 100 213 vline~;
#X msg 57 143 \$1 256;
#X obj 181 483 *~ 0.005;
#X obj 857 221 / 200;
#X obj 600 4 tgMetro 400;
#X connect 1 0 2 0;
#X connect 1 0 40 0;
#X connect 2 0 5 0;
#X connect 2 0 18 0;
#X connect 3 0 1 0;
#X connect 4 0 1 0;
#X connect 5 0 0 0;
#X connect 6 0 8 0;
#X connect 7 0 8 1;
#X connect 8 0 9 0;
#X connect 9 0 5 1;
#X connect 10 0 11 0;
#X connect 10 0 41 0;
#X connect 11 0 14 0;
#X connect 11 0 18 1;
#X connect 12 0 10 0;
#X connect 13 0 10 0;
#X connect 14 0 0 1;
#X connect 15 0 16 0;
#X connect 16 0 17 0;
#X connect 17 0 14 1;
#X connect 18 0 39 0;
#X connect 20 0 3 0;
#X connect 20 2 35 0;
#X connect 20 4 12 0;
#X connect 20 5 22 0;
#X connect 20 6 4 0;
#X connect 21 0 20 0;
#X connect 22 0 10 0;
#X connect 23 0 26 0;
#X connect 23 0 0 1;
#X connect 24 0 16 1;
#X connect 24 0 25 0;
#X connect 25 0 26 1;
#X connect 26 0 27 0;
#X connect 27 0 19 0;
#X connect 28 0 0 0;
#X connect 29 0 1 0;
#X connect 30 0 10 0;
#X connect 31 0 32 0;
#X connect 31 0 34 0;
#X connect 32 0 33 0;
#X connect 33 0 7 0;
#X connect 34 0 58 0;
#X connect 35 0 1 0;
#X connect 36 0 37 0;
#X connect 37 0 38 0;
#X connect 38 0 56 0;
#X connect 39 0 19 0;
#X connect 39 0 46 1;
#X connect 40 0 42 0;
#X connect 41 0 42 1;
#X connect 42 0 39 0;
#X connect 42 0 44 0;
#X connect 43 0 29 0;
#X connect 45 0 46 0;
#X connect 46 0 44 0;
#X connect 46 0 47 0;
#X connect 47 0 0 0;
#X connect 47 1 0 1;
#X connect 48 0 47 0;
#X connect 49 0 48 0;
#X connect 51 0 53 0;
#X connect 52 0 51 0;
#X connect 53 0 44 0;
#X connect 53 0 19 0;
#X connect 54 0 52 0;
#X connect 55 0 39 1;
#X connect 55 0 57 0;
#X connect 56 0 55 0;
#X connect 57 0 44 0;
#X connect 58 0 24 0;
#X connect 59 0 13 0;
