#N canvas 92 23 1627 811 10;
#X obj 74 113 random 800;
#X obj 74 163 + 100;
#X obj 75 211 * 0.7;
#X obj 2 5 tgDSP;
#X obj 73 619 tgMaster~;
#X obj 74 261 osc~;
#X obj 74 25 tgMetro 500;
#X obj 152 113 random 800;
#X obj 152 163 + 100;
#X obj 153 211 * 0.7;
#X obj 152 261 osc~;
#X obj 226 113 random 800;
#X obj 226 163 + 100;
#X obj 227 211 * 0.7;
#X obj 226 261 osc~;
#X obj 300 113 random 800;
#X obj 300 163 + 100;
#X obj 301 211 * 0.7;
#X obj 300 261 osc~;
#X obj 80 341 /~ 2;
#X obj 460 115 noise~;
#X obj 506 115 random 1000;
#X obj 506 149 + 200;
#X obj 483 181 bp~ 0 50;
#X obj 589 115 noise~;
#X obj 635 115 random 1000;
#X obj 635 149 + 200;
#X obj 612 181 bp~ 0 50;
#X obj 715 116 noise~;
#X obj 761 116 random 1000;
#X obj 761 150 + 200;
#X obj 738 182 bp~ 0 50;
#X obj 421 -2 tgMetro 256;
#X obj 1028 279 random 100;
#X obj 1029 366 osc~;
#X obj 1030 412 bp~;
#X obj 1119 176 tgMetro 200;
#X obj 1149 243 random 1000;
#X obj 1119 273 random;
#X obj 1028 90 tgMetro 128;
#X obj 877 409 *~;
#X obj 694 513 *~ 0.3;
#X obj 809 599 delread~ del0 2000;
#X obj 860 667 delwrite~ del0 2000;
#X obj 809 625 *~ 0.5;
#X obj 1028 322 + 50;
#X obj 884 265 random 10;
#X obj 885 295 moses 3;
#X obj 738 817 *;
#X obj 800 538 *~ 0.6;
#X obj 480 667 *~ 0.5;
#X obj 694 23 random 10;
#X obj 695 53 moses 3;
#X obj 776 36 random 10;
#X obj 777 66 moses 3;
#X obj 862 35 random 10;
#X obj 863 65 moses 3;
#X obj 506 93 bng 15 250 50 0 empty empty empty 17 7 0 10 -262144 -1
-1;
#X obj 80 509 *~ 10;
#X obj 72 551 *~ 0.005;
#X obj 1409 429 osc~ 440;
#X obj 1410 458 freeverb~;
#X obj 1532 491 freeverb~;
#X obj 1532 464 osc~ 880;
#X obj 1402 283 tgStepSequencer4;
#X msg 1403 368 220;
#X msg 1435 369 668;
#X msg 1467 369 312;
#X msg 1505 371 396;
#X obj 1233 542 *~ 0.3;
#X obj 1048 623 delread~ del2 2000;
#X obj 1099 691 delwrite~ del2 2000;
#X obj 1048 649 *~ 0.7;
#X obj 1533 287 tgStepSequencer4;
#X msg 1534 372 220;
#X msg 1566 373 668;
#X msg 1598 373 312;
#X msg 1636 375 396;
#X obj 1535 428 * 2;
#X obj 1449 540 *~ 0.3;
#X obj -46 482 delwrite~ del1 5000;
#X obj 101 433 delread~ del1 5000;
#X connect 0 0 1 0;
#X connect 1 0 2 0;
#X connect 2 0 5 0;
#X connect 5 0 19 0;
#X connect 6 0 0 0;
#X connect 6 0 7 0;
#X connect 6 0 11 0;
#X connect 6 0 15 0;
#X connect 7 0 8 0;
#X connect 8 0 9 0;
#X connect 9 0 10 0;
#X connect 10 0 19 0;
#X connect 11 0 12 0;
#X connect 12 0 13 0;
#X connect 13 0 14 0;
#X connect 14 0 19 0;
#X connect 15 0 16 0;
#X connect 16 0 17 0;
#X connect 17 0 18 0;
#X connect 18 0 19 0;
#X connect 19 0 80 0;
#X connect 20 0 23 0;
#X connect 21 0 22 0;
#X connect 22 0 23 1;
#X connect 23 0 4 1;
#X connect 24 0 27 0;
#X connect 25 0 26 0;
#X connect 26 0 27 1;
#X connect 27 0 4 1;
#X connect 28 0 31 0;
#X connect 29 0 30 0;
#X connect 30 0 31 1;
#X connect 31 0 4 1;
#X connect 32 0 51 0;
#X connect 32 0 55 0;
#X connect 33 0 45 0;
#X connect 34 0 40 0;
#X connect 34 0 40 1;
#X connect 34 0 35 0;
#X connect 35 0 41 0;
#X connect 36 0 37 0;
#X connect 36 0 38 0;
#X connect 37 0 38 1;
#X connect 38 0 35 1;
#X connect 39 0 46 0;
#X connect 40 0 35 0;
#X connect 41 0 4 0;
#X connect 41 0 49 0;
#X connect 42 0 44 0;
#X connect 42 0 50 0;
#X connect 44 0 43 0;
#X connect 45 0 34 0;
#X connect 46 0 47 0;
#X connect 46 0 47 1;
#X connect 47 0 33 0;
#X connect 47 0 64 0;
#X connect 49 0 43 0;
#X connect 50 0 4 0;
#X connect 51 0 52 0;
#X connect 51 0 52 1;
#X connect 52 0 53 0;
#X connect 52 0 57 0;
#X connect 53 0 54 0;
#X connect 53 0 54 1;
#X connect 54 0 25 0;
#X connect 55 0 56 0;
#X connect 55 0 56 1;
#X connect 56 0 29 0;
#X connect 56 0 73 0;
#X connect 57 0 21 0;
#X connect 58 0 59 0;
#X connect 59 0 43 0;
#X connect 60 0 61 0;
#X connect 61 0 69 0;
#X connect 62 0 79 0;
#X connect 63 0 62 0;
#X connect 64 0 65 0;
#X connect 64 1 66 0;
#X connect 64 2 67 0;
#X connect 64 3 68 0;
#X connect 65 0 60 0;
#X connect 66 0 60 0;
#X connect 67 0 60 0;
#X connect 68 0 60 0;
#X connect 69 0 71 0;
#X connect 70 0 4 1;
#X connect 70 0 72 0;
#X connect 72 0 71 0;
#X connect 73 0 74 0;
#X connect 73 1 75 0;
#X connect 73 2 76 0;
#X connect 73 3 77 0;
#X connect 74 0 78 0;
#X connect 75 0 78 0;
#X connect 76 0 78 0;
#X connect 77 0 78 0;
#X connect 78 0 63 0;
#X connect 79 0 69 0;
#X connect 81 0 58 0;
#X connect 81 0 80 0;
